<svg xmlns="http://www.w3.org/2000/svg" version="1.1" xmlns:xlink="http://www.w3.org/1999/xlink" width="1500" height="1500" viewBox="0 0 1500 1500"><rect width="1500" height="1500" x="0" y="0" id="background" stroke="transparent" fill="#bcbcbc"></rect><svg xml:space="preserve" width="1000" height="1000" data-version="2" data-id="lg_x0Fl0Iufrq5GE5jiDR" viewBox="0 0 551 385" x="250" y="250"><rect width="100%" height="100%" fill="transparent"></rect><path fill="#444444" d="M5.34 303.47h11.11v33.55l37.07-33.55h15.67l-42.06 38.1 43.74 39.62H55.2l-38.75-34.96v34.96H5.34zm123.37 30.67v23.63H90.5v12.74h38.21v10.68H90.5q-2.17 0-4.12-.84-1.95-.84-3.39-2.28-1.44-1.44-2.28-3.39-.84-1.95-.84-4.17v-36.37q0-2.22.84-4.17.84-1.95 2.28-3.39 1.44-1.43 3.39-2.27 1.95-.84 4.12-.84h27.53q2.22 0 4.17.84 1.95.84 3.39 2.27 1.44 1.44 2.28 3.39.84 1.95.84 4.17m-10.68 0H90.5v12.96h27.53zm79.51 0v47.05h-10.68v-47.05h-29.75v47.05h-10.63v-57.72h10.63v10.18q.11-2.11.97-3.98.87-1.87 2.31-3.25 1.43-1.38 3.33-2.17 1.9-.78 4.07-.78h19.07q2.23 0 4.18.84 1.95.84 3.38 2.27 1.44 1.44 2.28 3.39.84 1.95.84 4.17m68.83 0v47.05H255.7v-47.05h-29.76v47.05h-10.62v-57.72h10.62v10.18q.11-2.11.98-3.98.86-1.87 2.3-3.25t3.33-2.17q1.9-.78 4.07-.78h19.08q2.22 0 4.17.84 1.95.84 3.39 2.27 1.43 1.44 2.27 3.39.84 1.95.84 4.17m52.14 35.94v-55.5q0-2.28.87-4.31t2.39-3.53q1.51-1.49 3.55-2.38 2.03-.89 4.3-.89h42.17q2.28 0 4.31.89t3.55 2.38q1.52 1.5 2.38 3.53.87 2.03.87 4.31v10.02h-11.11v-10.02h-42.17v55.5h42.17v-9.98h11.11v9.98q0 2.27-.87 4.31-.86 2.03-2.38 3.55-1.52 1.51-3.55 2.38-2.03.87-4.31.87h-42.17q-2.27 0-4.3-.87-2.04-.87-3.55-2.38-1.52-1.52-2.39-3.55-.87-2.04-.87-4.31m81.08.43v-47.04h10.62v47.04h29.75v-47.04h10.68v57.72h-10.68v-9.76q-.16 2.01-1.08 3.8-.92 1.78-2.36 3.11-1.43 1.33-3.28 2.09-1.84.76-3.9.76h-19.13q-2.17 0-4.12-.84-1.95-.84-3.39-2.28-1.43-1.44-2.27-3.39-.84-1.95-.84-4.17m68.84-69.27h10.62v79.95h-10.62zm28.4 69.27v-14.53q0-2.22.84-4.14.84-1.93 2.28-3.39 1.43-1.46 3.38-2.3 1.95-.84 4.12-.84h27.53v-11.17h-34.85v-10.67h34.85q2.23 0 4.18.84 1.95.84 3.39 2.27 1.43 1.44 2.27 3.39.84 1.95.84 4.17v47.05h-10.68v-9.76q-.16 2.01-1.08 3.8-.92 1.78-2.36 3.11-1.43 1.33-3.28 2.09-1.84.76-3.9.76h-16.91q-2.17 0-4.12-.84-1.95-.84-3.38-2.28-1.44-1.44-2.28-3.39-.84-1.95-.84-4.17m10.62-14.53v14.53h27.53v-14.53z"></path><path fill="#bcbcbc" d="M150.22 232.82H109.2V7.69h41.02v112.08L221.93 7.69h47.48l-76.72 111.76 81.88 113.37h-51.68l-72.67-108.04zm227.71 3.88q-17.6 0-33.91-7.19-16.31-7.18-29.31-21.8-13-14.62-20.59-37.23t-7.59-53.29q0-36.82 12.84-62.1 12.83-25.27 34.39-38.27 21.56-13 47.73-13 17.76 0 28.99 3.39 11.22 3.39 17.92 8.07 6.71 4.69 10.9 8.56l-18.08 33.92q-6.95-7.59-14.38-12.2-7.43-4.6-23.74-4.6-16.47 0-28.02 9.53-11.54 9.53-17.6 26.24-6.06 16.72-6.06 38.2 0 42.15 14.13 63.55 14.14 21.4 34 21.4 15.34 0 26.16-4.36t16.15-9.85l17.77 31.97q-4.52 3.72-12.03 8.16-7.51 4.44-19.55 7.67-12.03 3.23-30.12 3.23"></path><path fill="#828282" d="M174.76 232.82h-41.02V7.69h41.02v112.08L246.47 7.69h47.48l-76.71 111.76 81.88 113.37h-51.68l-72.68-108.04zm227.71 3.88q-17.61 0-33.92-7.19-16.31-7.18-29.31-21.8-13-14.62-20.59-37.23t-7.59-53.29q0-36.82 12.84-62.1 12.84-25.27 34.4-38.27 21.56-13 47.72-13 17.77 0 28.99 3.39 11.22 3.39 17.93 8.07 6.7 4.69 10.9 8.56l-18.09 33.92q-6.94-7.59-14.37-12.2-7.43-4.6-23.74-4.6-16.48 0-28.02 9.53-11.55 9.53-17.61 26.24-6.05 16.72-6.05 38.2 0 42.15 14.13 63.55t33.99 21.4q15.35 0 26.17-4.36 10.82-4.36 16.15-9.85l17.76 31.97q-4.52 3.72-12.03 8.16-7.51 4.44-19.54 7.67-12.03 3.23-30.12 3.23"></path><path fill="#444444" d="M162.5 232.82h-41.02V7.69h41.02v112.08L234.2 7.69h47.48l-76.71 111.76 81.88 113.37h-51.68L162.5 124.78zm227.7 3.88q-17.6 0-33.91-7.19-16.31-7.18-29.31-21.8-13.01-14.62-20.6-37.23-7.59-22.61-7.59-53.29 0-36.82 12.84-62.1 12.84-25.27 34.4-38.27 21.56-13 47.73-13 17.76 0 28.99 3.39 11.22 3.39 17.92 8.07 6.7 4.69 10.9 8.56l-18.09 33.92q-6.94-7.59-14.37-12.2-7.43-4.6-23.74-4.6-16.47 0-28.02 9.53t-17.6 26.24q-6.06 16.72-6.06 38.2 0 42.15 14.13 63.55t34 21.4q15.34 0 26.16-4.36t16.15-9.85l17.77 31.97q-4.53 3.72-12.04 8.16-7.51 4.44-19.54 7.67-12.03 3.23-30.12 3.23"></path></svg></svg>